<?xml version="1.0" encoding="UTF-8"?><svg id="Livello_1" xmlns="http://www.w3.org/2000/svg" xmlns:xlink="http://www.w3.org/1999/xlink" viewBox="0 0 1200 1200"><defs><filter id="drop-shadow-1" filterUnits="userSpaceOnUse"><feOffset dx="5" dy="5"/><feGaussianBlur result="blur" stdDeviation="5"/><feFlood flood-color="#202247" flood-opacity=".7"/><feComposite in2="blur" operator="in"/><feComposite in="SourceGraphic"/></filter><filter id="drop-shadow-2" filterUnits="userSpaceOnUse"><feOffset dx="5" dy="5"/><feGaussianBlur result="blur-2" stdDeviation="5"/><feFlood flood-color="#202247" flood-opacity=".7"/><feComposite in2="blur-2" operator="in"/><feComposite in="SourceGraphic"/></filter></defs><path d="m380.75,724.62c-3.56,3.56-4.44,9-2.19,13.5l.07.14c1.98,3.96,6.03,6.46,10.46,6.46h128.74c3.24,0,6.34-1.35,8.55-3.71l147.31-157.83c5.07-5.44,13.86-4.82,18.13,1.27l81.35,116.22c5.43,7.75-.12,18.4-9.58,18.4h-60.69c-3.82,0-7.39-1.86-9.58-4.99l-27.02-38.6c.16-.96.29-1.92.29-2.92,0-9.69-7.86-17.55-17.55-17.55s-17.55,7.86-17.55,17.55c0,8.23,5.69,15.09,13.34,16.99l35.13,50.19c2.19,3.13,5.76,4.99,9.58,4.99h117.45c4.43,0,8.47-2.5,10.46-6.46l2.44-4.88c1.92-3.84,1.59-8.42-.88-11.94l-124.35-177.65c-4.26-6.09-13.05-6.71-18.13-1.27l-161.31,172.83c-2.21,2.37-5.31,3.71-8.55,3.71h-55.87c-10.42,0-15.63-12.6-8.27-19.96l379.14-379.14c3.56-3.56,4.44-9,2.19-13.5-1.98-3.96-6.03-6.46-10.46-6.46h-128.94c-3.24,0-6.34,1.35-8.55,3.71l-147.31,157.83c-5.07,5.44-13.86,4.82-18.13-1.27l-81.35-116.22c-5.43-7.75.12-18.4,9.58-18.4h60.69c3.82,0,7.39,1.86,9.58,4.99l26,37.13-.52.56c-1.16,1.25-1.29,3.13-.31,4.53l15.89,22.71c1.32,1.88,4.04,2.07,5.6.39l18.52-19.93c1.16-1.25,1.29-3.13.31-4.53l-15.89-22.71c-1.32-1.88-4.04-2.07-5.6-.39l-.14.15-30.5-43.57c-2.19-3.13-5.76-4.99-9.58-4.99h-117.57c-4.43,0-8.47,2.5-10.46,6.46l-2.4,4.78c-1.92,3.84-1.59,8.42.88,11.94l124.42,177.74c4.26,6.09,13.05,6.71,18.13,1.27l161.31-172.83c2.21-2.37,5.31-3.71,8.55-3.71h55.87c10.42,0,15.63,12.6,8.27,19.96l-379,379Z" style="fill:#fff; filter:url(#drop-shadow-1);"/><g style="fill:none; filter:url(#drop-shadow-2);"><path d="m450.15,900l-27.18-38.05-26.9,38.05h-21.17l37.2-51.07-35.19-49.07h21.03l25.61,35.62,25.32-35.62h20.17l-35.05,48.36,37.63,51.79h-21.46Z" style="fill:#fff;"/><path d="m548.43,900l-20.46-29.33c-.86.1-2.15.14-3.86.14h-22.6v29.18h-18.6v-100.14h41.2c8.68,0,16.24,1.43,22.68,4.29,6.44,2.86,11.37,6.96,14.81,12.3,3.43,5.34,5.15,11.68,5.15,19.03s-1.84,14.02-5.51,19.46c-3.67,5.44-8.94,9.49-15.81,12.16l23.03,32.9h-20.03Zm-6.72-79.26c-4.2-3.43-10.35-5.15-18.46-5.15h-21.75v39.91h21.75c8.11,0,14.26-1.74,18.46-5.22,4.2-3.48,6.29-8.42,6.29-14.81s-2.1-11.3-6.29-14.74Z" style="fill:#fff;"/><path d="m606.08,815.45v30.47h48.36v15.74h-48.36v38.34h-18.6v-100.14h73.1v15.59h-54.51Z" style="fill:#fff;"/><path d="m678.61,799.86h18.6v100.14h-18.6v-100.14Z" style="fill:#fff;"/><path d="m724.25,799.86h43.78c10.68,0,20.17,2.07,28.47,6.22,8.3,4.15,14.74,10.01,19.31,17.6,4.58,7.58,6.87,16.33,6.87,26.25s-2.29,18.67-6.87,26.25c-4.58,7.58-11.02,13.45-19.31,17.6-8.3,4.15-17.79,6.22-28.47,6.22h-43.78v-100.14Zm42.92,84.41c7.34,0,13.81-1.41,19.39-4.22,5.58-2.81,9.87-6.82,12.88-12.02,3-5.2,4.51-11.23,4.51-18.1s-1.5-12.9-4.51-18.1c-3-5.2-7.3-9.2-12.88-12.02-5.58-2.81-12.04-4.22-19.39-4.22h-24.32v68.67h24.32Z" style="fill:#fff;"/></g></svg>