<?xml version="1.0" encoding="UTF-8"?><svg id="Livello_2" xmlns="http://www.w3.org/2000/svg" viewBox="0 0 27.13 27.13"><g id="Livello_1-2"><path d="m13.56,0C6.09,0,0,6.08,0,13.56s6.09,13.56,13.56,13.56,13.56-6.08,13.56-13.56S21.04,0,13.56,0Zm0,25.15c-6.37,0-11.54-5.2-11.54-11.59S7.2,1.97,13.56,1.97s11.54,5.2,11.54,11.59-5.18,11.59-11.54,11.59Z" style="fill:#33658a;"/><path d="m13.56,9.61c-.96,0-1.74.78-1.74,1.74v9.3c0,.96.78,1.74,1.74,1.74s1.74-.78,1.74-1.74v-9.3c0-.96-.78-1.74-1.74-1.74Z" style="fill:#33658a;"/><path d="m13.56,8.21c.96,0,1.74-.78,1.74-1.74s-.78-1.74-1.74-1.74-1.74.78-1.74,1.74.78,1.74,1.74,1.74Z" style="fill:#33658a;"/></g></svg>