<?xml version="1.0" encoding="UTF-8"?><svg id="Livello_2" xmlns="http://www.w3.org/2000/svg" viewBox="0 0 28.5 29.42"><g id="Livello_1-2"><path d="m27.79,15.42H.79c-.39,0-.71-.32-.71-.71s.32-.71.71-.71h27c.39,0,.71.32.71.71s-.32.71-.71.71Z" style="fill:#33658a;"/><path d="m27.71,1.42H.71c-.39,0-.71-.32-.71-.71s.32-.71.71-.71h27c.39,0,.71.32.71.71s-.32.71-.71.71Z" style="fill:#33658a;"/><path d="m27.72,29.42H.72c-.39,0-.71-.32-.71-.71s.32-.71.71-.71h27c.39,0,.71.32.71.71s-.32.71-.71.71Z" style="fill:#33658a;"/></g></svg>