<?xml version="1.0" encoding="UTF-8"?><svg id="Livello_2" xmlns="http://www.w3.org/2000/svg" viewBox="0 0 28.65 28.65"><g id="Livello_1-2"><path d="m10.62,28.65c-.09,0-.18-.02-.27-.05l-3.3-1.36c-.29-.12-.47-.43-.43-.74l.42-3.3-1.58-1.58-3.3.42c-.33.04-.62-.14-.75-.43L.06,18.31c-.12-.3-.03-.64.22-.83l2.63-2.03v-2.23S.28,11.18.28,11.18c-.25-.2-.34-.54-.22-.83l1.36-3.3c.12-.3.41-.48.75-.43l3.3.42,1.58-1.58-.42-3.3c-.04-.32.14-.62.43-.75L10.34.06c.29-.12.64-.03.83.22l2.03,2.63h2.23s2.03-2.63,2.03-2.63c.2-.25.53-.34.83-.22l3.3,1.36c.29.12.47.43.43.74l-.42,3.3,1.58,1.58,3.3-.42c.33-.04.62.14.75.43l1.37,3.3c.12.3.03.64-.22.83l-2.63,2.03v2.23s2.63,2.03,2.63,2.03c.25.2.34.54.22.83l-1.36,3.3c-.12.29-.42.47-.75.43l-3.3-.42-1.58,1.58.42,3.3c.04.32-.14.62-.43.75l-3.3,1.37c-.29.12-.64.03-.83-.22l-2.03-2.63h-2.23s-2.03,2.63-2.03,2.63c-.14.18-.35.28-.56.28Zm-2.52-2.52l2.29.95,1.91-2.48c.13-.17.34-.28.56-.28h2.93c.22,0,.43.1.56.27l1.92,2.48,2.29-.95-.4-3.1c-.03-.22.05-.44.2-.59l2.07-2.07c.15-.16.38-.23.59-.2l3.11.4.95-2.3-2.48-1.91c-.17-.13-.28-.34-.28-.56v-2.93c0-.22.1-.43.27-.56l2.48-1.91-.95-2.29-3.1.4c-.22.03-.44-.05-.59-.2l-2.07-2.07c-.16-.16-.23-.37-.2-.59l.4-3.1-2.29-.95-1.91,2.48c-.13.17-.34.28-.56.28h-2.93c-.22,0-.43-.1-.56-.27l-1.92-2.48-2.29.95.4,3.1c.03.22-.05.44-.2.59l-2.07,2.07c-.16.16-.38.23-.59.2l-3.11-.4-.95,2.3,2.48,1.91c.17.13.28.34.28.56v2.93c0,.22-.1.43-.27.56l-2.48,1.91.95,2.29,3.1-.4c.22-.03.44.05.59.2l2.07,2.07c.16.16.23.37.2.59l-.4,3.1Z" style="fill:#e55934;"/><path d="m14.32,20.03s-.08,0-.12,0c-1.52-.03-2.95-.65-4-1.75s-1.62-2.54-1.59-4.07c.06-3.15,2.68-5.68,5.82-5.59,1.52.03,2.95.65,4,1.75s1.62,2.54,1.59,4.07h-.71s.71,0,.71,0c-.06,3.11-2.61,5.59-5.71,5.59Zm0-10c-2.33,0-4.24,1.87-4.29,4.21-.02,1.15.4,2.23,1.2,3.06s1.86,1.29,3.01,1.32c2.4.04,4.33-1.84,4.38-4.2.05-2.37-1.84-4.33-4.2-4.38-.03,0-.06,0-.09,0Z" style="fill:#e55934;"/></g></svg>