<?xml version="1.0" encoding="UTF-8"?><svg id="Livello_2" xmlns="http://www.w3.org/2000/svg" viewBox="0 0 50 50"><g id="Livello_2-2"><path d="m39,50H11c-6.07,0-11-4.93-11-11V11C0,4.93,4.93,0,11,0h19c.55,0,1,.45,1,1s-.45,1-1,1H11C6.04,2,2,6.04,2,11v28c0,4.96,4.04,9,9,9h28c4.96,0,9-4.04,9-9V15c0-.55.45-1,1-1s1,.45,1,1v24c0,6.07-4.93,11-11,11Z" style="fill:#e55933;"/><path d="m25,30s-.03,0-.05,0c-.31-.02-.59-.17-.77-.43l-9-13c-.31-.45-.2-1.08.25-1.39.45-.32,1.08-.2,1.39.25l8.26,11.93L48.24.35c.36-.42.99-.47,1.41-.11.42.36.47.99.11,1.41l-24,28c-.19.22-.47.35-.76.35Z" style="fill:#e55933;"/></g></svg>