<?xml version="1.0" encoding="UTF-8"?><svg id="Livello_2" xmlns="http://www.w3.org/2000/svg" viewBox="0 0 50.11 50.11"><g id="Livello_2-2"><path d="m20,31c-.15,0-.31-.04-.45-.11l-10-5c-.34-.17-.55-.52-.55-.89v-10c0-.35.18-.67.47-.85.29-.18.66-.2.97-.04l10,5c.34.17.55.52.55.89v10c0,.35-.18.67-.47.85-.16.1-.34.15-.53.15Zm-9-6.62l8,4v-7.76l-8-4v7.76Z" style="fill:#e55933;"/><path d="m20,31c-.18,0-.37-.05-.53-.15-.29-.18-.47-.5-.47-.85v-10c0-.38.21-.73.55-.89l10-5c.31-.15.68-.14.97.04.29.18.47.5.47.85v10c0,.38-.21.73-.55.89l-10,5c-.14.07-.29.11-.45.11Zm1-10.38v7.76l8-4v-7.76l-8,4Z" style="fill:#e55933;"/><path d="m20,21c-.15,0-.31-.04-.45-.11l-10-5c-.34-.17-.55-.52-.55-.89s.21-.73.55-.89l10-5c.28-.14.61-.14.89,0l10,5c.34.17.55.52.55.89s-.21.73-.55.89l-10,5c-.14.07-.29.11-.45.11Zm-7.76-6l7.76,3.88,7.76-3.88-7.76-3.88-7.76,3.88Z" style="fill:#e55933;"/><path d="m15,18.5c-.37,0-.72-.2-.9-.55-.25-.49-.05-1.09.45-1.34l10-5c.49-.25,1.09-.05,1.34.45.25.49.05,1.09-.45,1.34l-10,5c-.14.07-.3.11-.45.11Z" style="fill:#e55933;"/><path d="m16.67,22.67c-.15,0-.3-.03-.45-.11l-3.33-1.67c-.49-.25-.69-.85-.45-1.34.25-.49.85-.69,1.34-.45l3.33,1.67c.49.25.69.85.45,1.34-.17.35-.53.55-.9.55Z" style="fill:#e55933;"/><path d="m20,40C8.97,40,0,31.03,0,20S8.97,0,20,0s20,8.97,20,20-8.97,20-20,20Zm0-38C10.08,2,2,10.07,2,20s8.08,18,18,18,18-8.08,18-18S29.92,2,20,2Z" style="fill:#e55933;"/><path d="m45.93,50.11c-.8,0-1.59-.3-2.19-.89l-13.42-12.48c-.41-.38-.43-1.01-.05-1.41.38-.4,1.01-.43,1.41-.05l13.45,12.51c.48.48,1.25.43,1.76-.07l.82-.82c.5-.5.55-1.28.1-1.73l-13.42-12.48c-.41-.38-.43-1.01-.05-1.41.38-.41,1.01-.43,1.41-.05l13.45,12.51c1.26,1.26,1.21,3.3-.07,4.58l-.82.82c-.66.66-1.52.99-2.37.99Z" style="fill:#e55933;"/></g></svg>