<?xml version="1.0" encoding="UTF-8"?><svg id="Livello_2" xmlns="http://www.w3.org/2000/svg" viewBox="0 0 25.25 27.15"><g id="Livello_1-2"><path d="m24.83,8.15L15.43.95c-.8-.62-1.79-.95-2.8-.95s-2,.33-2.8.95L.42,8.15c-.63.48-.53,1.45.18,1.8.15.07.31.1.47.1v12.46c0,2.55,2.06,4.61,4.61,4.61h4.65c.06,0,.12.02.18.02h4.06c.06,0,.12-.01.18-.02h4.83c2.55,0,4.61-2.06,4.61-4.61v-12.46c.16,0,.32-.03.47-.1.71-.35.8-1.32.18-1.8Zm-10.42,16.85h-3.75v-5.73h3.75v5.73Zm5.17,0h-3.04v-5.89c0-1.09-.88-1.97-1.97-1.97h-4.06c-1.09,0-1.97.88-1.97,1.97v5.89h-2.86c-1.37,0-2.49-1.11-2.49-2.49v-13.8l7.93-6.07c.43-.33.97-.51,1.51-.51s1.08.18,1.51.51l7.93,6.07v13.8c0,1.37-1.11,2.49-2.49,2.49Z" style="fill:#33658a;"/></g></svg>