<?xml version="1.0" encoding="UTF-8"?><svg id="Livello_2" xmlns="http://www.w3.org/2000/svg" viewBox="0 0 50 50"><g id="Livello_2-2"><path d="m1,12c-.55,0-1-.45-1-1V1C0,.45.45,0,1,0h10c.55,0,1,.45,1,1s-.45,1-1,1H2v9c0,.55-.45,1-1,1Z" style="fill:#e55933;"/><path d="m11,50H1c-.55,0-1-.45-1-1v-10c0-.55.45-1,1-1s1,.45,1,1v9h9c.55,0,1,.45,1,1s-.45,1-1,1Z" style="fill:#e55933;"/><path d="m49,50h-10c-.55,0-1-.45-1-1s.45-1,1-1h9v-9c0-.55.45-1,1-1s1,.45,1,1v10c0,.55-.45,1-1,1Z" style="fill:#e55933;"/><path d="m49,12c-.55,0-1-.45-1-1V2h-9c-.55,0-1-.45-1-1s.45-1,1-1h10c.55,0,1,.45,1,1v10c0,.55-.45,1-1,1Z" style="fill:#e55933;"/><path d="m49,26H1c-.55,0-1-.45-1-1s.45-1,1-1h48c.55,0,1,.45,1,1s-.45,1-1,1Z" style="fill:#e55933;"/><rect x="31" y="10" width="2" height="16" rx=".52" ry=".52" style="fill:#e55933;"/><rect x="31" y="28" width="2" height="12" rx=".45" ry=".45" style="fill:#e55933;"/><rect x="28" y="10" width="1" height="16" rx=".37" ry=".37" style="fill:#e55933;"/><rect x="28" y="28" width="1" height="12" rx=".32" ry=".32" style="fill:#e55933;"/><rect x="10" y="10" width="2" height="16" rx=".52" ry=".52" style="fill:#e55933;"/><rect x="14" y="10" width="1" height="16" rx=".37" ry=".37" style="fill:#e55933;"/><rect x="17" y="10" width="2" height="16" rx=".52" ry=".52" style="fill:#e55933;"/><rect x="10" y="28" width="2" height="12" rx=".45" ry=".45" style="fill:#e55933;"/><rect x="14" y="28" width="1" height="12" rx=".32" ry=".32" style="fill:#e55933;"/><rect x="17" y="28" width="2" height="12" rx=".45" ry=".45" style="fill:#e55933;"/><rect x="21" y="10" width="1" height="16" rx=".37" ry=".37" style="fill:#e55933;"/><rect x="21" y="28" width="1" height="12" rx=".32" ry=".32" style="fill:#e55933;"/><rect x="24" y="10" width="2" height="16" rx=".52" ry=".52" style="fill:#e55933;"/><rect x="24" y="28" width="2" height="12" rx=".45" ry=".45" style="fill:#e55933;"/><rect x="39" y="10" width="1" height="16" rx=".37" ry=".37" style="fill:#e55933;"/><rect x="39" y="28" width="1" height="12" rx=".32" ry=".32" style="fill:#e55933;"/><rect x="35" y="10" width="2" height="16" rx=".52" ry=".52" style="fill:#e55933;"/><rect x="35" y="28" width="2" height="12" rx=".45" ry=".45" style="fill:#e55933;"/></g></svg>