<?xml version="1.0" encoding="UTF-8"?><svg id="Livello_2" xmlns="http://www.w3.org/2000/svg" xmlns:xlink="http://www.w3.org/1999/xlink" viewBox="0 0 700 400"><defs><filter id="drop-shadow-1" filterUnits="userSpaceOnUse"><feOffset dx="6" dy="6"/><feGaussianBlur result="blur" stdDeviation="5"/><feFlood flood-color="#1d1d1b" flood-opacity=".6"/><feComposite in2="blur" operator="in"/><feComposite in="SourceGraphic"/></filter><filter id="drop-shadow-2" filterUnits="userSpaceOnUse"><feOffset dx="6" dy="6"/><feGaussianBlur result="blur-2" stdDeviation="5"/><feFlood flood-color="#1d1d1b" flood-opacity=".6"/><feComposite in2="blur-2" operator="in"/><feComposite in="SourceGraphic"/></filter></defs><g id="Livello_1-2"><g style="fill:none; filter:url(#drop-shadow-1);"><path d="m312.9,352.61l-25.94-37.19c-1.09.12-2.72.18-4.9.18h-28.67v37.01h-23.59v-127h52.25c11,0,20.59,1.81,28.76,5.44,8.16,3.63,14.42,8.83,18.78,15.6,4.35,6.78,6.53,14.82,6.53,24.13s-2.33,17.78-6.98,24.67c-4.66,6.89-11.34,12.04-20.05,15.42l29.21,41.73h-25.4Zm-8.53-100.51c-5.32-4.35-13.13-6.53-23.4-6.53h-27.58v50.62h27.58c10.28,0,18.08-2.21,23.4-6.62,5.32-4.41,7.98-10.67,7.98-18.78s-2.66-14.33-7.98-18.69Z" style="fill:#e55934;"/><path d="m386.01,245.39v38.64h61.32v19.96h-61.32v48.62h-23.59v-127h92.71v19.78h-69.12Z" style="fill:#e55934;"/><path d="m478,225.61h23.59v127h-23.59v-127Z" style="fill:#e55934;"/><path d="m535.87,225.61h55.52c13.54,0,25.58,2.63,36.1,7.89,10.52,5.26,18.69,12.7,24.49,22.32,5.81,9.62,8.71,20.71,8.71,33.29s-2.9,23.68-8.71,33.29c-5.81,9.62-13.97,17.05-24.49,22.32-10.52,5.26-22.56,7.89-36.1,7.89h-55.52v-127Zm54.43,107.04c9.31,0,17.51-1.78,24.58-5.35,7.08-3.57,12.52-8.65,16.33-15.24,3.81-6.59,5.71-14.24,5.71-22.95s-1.91-16.36-5.71-22.95c-3.81-6.59-9.25-11.67-16.33-15.24-7.08-3.57-15.27-5.35-24.58-5.35h-30.84v87.09h30.84Z" style="fill:#e55934;"/><path d="m380.33,131.86c-3.85,3.72-3.96,9.85-.24,13.7,3.72,3.85,9.85,3.96,13.7.24,52.82-51.03,138.81-51.08,191.69-.12,1.88,1.81,4.31,2.71,6.73,2.71,2.54,0,5.07-.99,6.97-2.97,3.71-3.85,3.6-9.99-.25-13.7-60.31-58.12-158.37-58.06-218.61.13Z" style="fill:#e55934;"/><path d="m530.81,189.48c1.88,1.81,4.31,2.71,6.73,2.71,2.54,0,5.07-.99,6.97-2.97,3.71-3.85,3.6-9.99-.25-13.7-30.12-29.03-79.11-29-109.2.07-3.85,3.72-3.96,9.86-.24,13.7,3.72,3.85,9.86,3.96,13.7.24,22.67-21.9,59.58-21.92,82.28-.05Z" style="fill:#e55934;"/><path d="m489.57,26.5c-54.16.03-105.11,20.46-143.46,57.51-3.85,3.72-3.96,9.85-.24,13.7,3.72,3.85,9.86,3.96,13.7.24,71.66-69.23,188.33-69.3,260.07-.16,1.88,1.81,4.31,2.71,6.73,2.71,2.54,0,5.07-.99,6.97-2.97,3.71-3.85,3.6-9.99-.25-13.7-38.4-37.01-89.37-57.37-143.53-57.34Z" style="fill:#e55934;"/></g><path d="m179.93,204.72h-112.48c-15.48,0-28.15,12.67-28.15,28.15v112.48c0,15.48,12.67,28.15,28.15,28.15h112.48c15.48,0,28.15-12.67,28.15-28.15v-112.48c0-15.48-12.67-28.15-28.15-28.15Zm5.54,27.68l-106.24,106.24c-2.06,2.06-.6,5.59,2.32,5.59h15.66c.91,0,1.78-.38,2.4-1.04l45.2-48.43c1.42-1.52,3.88-1.35,5.08.36l34.85,49.78c.69.99.78,2.27.25,3.35l-.68,1.37c-.56,1.11-1.69,1.81-2.93,1.81h-32.91c-1.07,0-2.07-.52-2.68-1.4l-9.84-14.06c-2.14-.53-3.74-2.45-3.74-4.76,0-2.72,2.2-4.92,4.92-4.92s4.92,2.2,4.92,4.92c0,.28-.04.55-.08.82l7.57,10.82c.61.88,1.61,1.4,2.68,1.4h17.01c2.65,0,4.2-2.98,2.68-5.16l-22.8-32.57c-1.19-1.71-3.66-1.88-5.08-.36l-41.28,44.23c-.62.66-1.49,1.04-2.4,1.04h-36.07c-1.24,0-2.37-.7-2.93-1.81l-.02-.04c-.63-1.26-.38-2.79.61-3.78l106.2-106.2c2.06-2.06.6-5.59-2.32-5.59h-15.66c-.91,0-1.78.38-2.4,1.04l-45.2,48.43c-1.42,1.52-3.88,1.35-5.08-.36l-34.86-49.8c-.69-.99-.78-2.27-.25-3.35l.67-1.34c.56-1.11,1.69-1.81,2.93-1.81h32.94c1.07,0,2.07.52,2.68,1.4l8.55,12.21.04-.04c.44-.47,1.2-.42,1.57.11l4.45,6.36c.27.39.24.92-.09,1.27l-5.19,5.58c-.44.47-1.2.42-1.57-.11l-4.45-6.36c-.27-.39-.24-.92.09-1.27l.15-.16-7.28-10.41c-.61-.88-1.61-1.4-2.68-1.4h-17.01c-2.65,0-4.2,2.98-2.68,5.16l22.8,32.57c1.19,1.71,3.66,1.88,5.08.36l41.28-44.23c.62-.66,1.49-1.04,2.4-1.04h36.13c1.24,0,2.37.7,2.93,1.81.63,1.26.38,2.79-.61,3.78Z" style="fill:#e55934; filter:url(#drop-shadow-2);"/><rect width="700" height="400" style="fill:none;"/></g></svg>